<svg width="1741" height="1024" xmlns="http://www.w3.org/2000/svg" version="1.0">

 <g>
  <title>Layer 1</title>
  <path id="svg_1" d="m436.5,121.8c-1.6,1.1 -4.1,3.2 -5.5,4.6l-2.5,2.8l0,119.4l-9.9,-0.1l-10,-0.2l-2.3,-6.9c-7.1,-20.7 -23.8,-75.5 -28.3,-92.5c-3.2,-12.1 -5.6,-15.9 -11.7,-18.5c-8.9,-3.8 -20,1.2 -23.2,10.5c-0.6,1.9 -1.1,4.4 -1.1,5.7c0,2.5 27.9,91.6 31.5,100.7c0.7,1.6 -1.6,1.7 -41.6,1.5c-41.2,-0.3 -42.7,-0.2 -51.3,2c-23,5.8 -39.7,18.1 -53.9,39.4c-6.3,9.4 -10.3,17.9 -15.3,32.2c-3.9,11.3 -6,22.9 -6.9,39.6c-0.7,11.7 -1.8,17.1 -14.5,72c-6.5,28.3 -28.7,116.6 -40.1,159.7c-5.5,21.1 -6.9,27.7 -6.9,33.5c0,9.7 2.5,14.1 9.9,18l5.3,2.8l64.7,0l0.3,41.2l0.3,41.3l2.6,5.5c3.2,6.7 8.9,12.5 15,15.4l4.7,2.2l-1.9,2.6c-2.5,3.4 -7.9,14.4 -15.1,30.8c-7.3,16.6 -8.5,24.2 -4.6,30c3.5,5.3 9.4,7.5 31.8,12c46.2,9.3 105.9,25.5 148.1,40.4c16.4,5.7 47.8,17.4 54.4,20.1c5.9,2.5 15.2,1.7 19.7,-1.7s7.4,-9.6 8.2,-17.3c4.6,-44.5 10.9,-88.9 14.2,-100.7c0.4,-1.5 3.7,-1.7 35.2,-2l34.7,-0.4l7.5,-2.8c16.9,-6.4 29.5,-18.6 35.1,-34.1c2,-5.3 2.3,-8.6 2.7,-27.5l0.4,-21.5l3.5,-6.9c1.9,-3.8 4.1,-9.8 4.9,-13.5c1.5,-7.2 1.9,-33 0.8,-53.6l-0.7,-12.1l14.4,-1.2c7.9,-0.7 16.5,-1.7 19.2,-2.3c7.3,-1.6 13.7,-6.6 17.1,-13.3c5.3,-10.2 5.5,-9.1 -18.9,-82c-21.7,-64.6 -21.7,-64.8 -22.6,-76.5c-0.6,-8 -2.1,-16.3 -4.8,-26.6c-3.3,-12.5 -3.7,-15.3 -2.6,-16.5c4.5,-5.3 4.5,-4.8 4.5,-61c0,-51 -0.1,-53.2 -2,-57c-2.4,-4.7 -7.1,-8.4 -12.5,-9.9c-2.6,-0.7 -19.7,-1.1 -48,-1.2c-24.2,-0.1 -45.2,-0.4 -46.6,-0.8l-2.5,-0.6l9.8,-32c15.7,-51 19.8,-65.6 19.8,-69.4c0,-4.9 -3.7,-11 -8,-13.2c-6.8,-3.7 -16.4,-1.8 -21.4,4.2c-2.8,3.3 -7,15.7 -15.5,45.4c-3.3,11.5 -7.5,25.5 -9.4,31s-5.2,15.8 -7.3,22.8l-3.8,12.8l-10.9,-0.3l-10.9,-0.3l0.2,-56.8c0.1,-53.9 0,-56.9 -1.8,-61.1c-2.7,-6.1 -7.2,-9 -14.7,-9.4c-4.6,-0.2 -6.7,0.1 -9,1.6m163.8,196.8l-0.3,38.5l-56.3,0l-37.7,-0.1l0,-38.4c0.1,-21.1 0.3,-38.5 0.5,-38.7s21.4,-0.3 47.2,-0.1l46.8,0.2l-0.2,38.6zm-124.8,-11.9l0,26.3l-104.6,0c-57.5,0 -110,-0.3 -116.7,-0.7l-12.2,-0.6l0.6,-2.6c0.3,-1.4 3,-7.6 6,-13.7c10.2,-20.8 23.5,-31.4 42.8,-34.2c2.7,-0.4 45.3,-0.7 94.5,-0.7l89.6,-0.1l0,26.3zm-13.2,58l12.7,0.6l0,2.6c0,3.3 3.1,10.1 5.4,12c1.3,1.1 1.4,1.6 0.4,2.2c-0.7,0.5 -56.1,0.9 -123,0.9l-121.8,0l0,-19l106.8,0c58.7,0 112.4,0.3 119.5,0.7m140.5,48c3.5,25.8 3.8,27.1 12.7,54.3c4.6,14 12.5,38.3 17.5,53.9c5.1,15.6 10.5,31.5 12.1,35.3c2.4,5.9 2.6,6.8 1.1,6.8c-10.9,0.1 -56.8,3.3 -58.3,4c-2.4,1.3 -4.7,4.8 -5.9,9.1c-2,6.7 3,16.8 9.6,19.5c2,0.8 3.4,2.2 3.5,3.2c0,0.9 0.6,9.2 1.2,18.3l1.2,16.6l-15.7,0.7c-37.4,1.5 -49.8,6.2 -48.5,18.4c0.3,3 1.4,5.3 3.3,7.3c4.1,4.3 7.8,5.2 17.5,3.9c4.6,-0.5 15,-1 23.1,-1c17.2,0 17.1,-0.1 11.3,9.5l-3.5,5.8l1.1,13.1c1.8,21.6 0.2,30.4 -7.2,37.8c-7.7,7.7 -8.2,7.8 -60.2,7.8c-41.1,0 -45.7,-0.2 -54.8,-2c-26.5,-5.4 -54.9,-18.1 -74.9,-33.5l-5.9,-4.6l-0.3,-42.7c-0.3,-40.3 -0.4,-42.9 -2.3,-46.9c-1.3,-2.7 -10.7,-13.2 -25.2,-28.2c-24.7,-25.3 -29.5,-29.1 -37.5,-29.1c-3.7,0 -3.8,-0.1 -3.8,-3.8c0,-5.4 -2.4,-13.8 -7.7,-27.1c-2.5,-6.4 -4.8,-13.6 -5,-16.1c-0.5,-4.1 -0.1,-5.1 3.6,-10c4.8,-6.3 5.4,-11.4 2.1,-16.8c-5.2,-8.5 -17.8,-7.8 -25.9,1.3c-5.4,6.2 -7.4,11.8 -7.9,22.2c-0.5,10.5 1.1,17.2 7.4,30.9c2.4,5.3 3.7,9.5 3.8,12.8c0.1,6.2 -0.2,6.4 -18.5,6.5l-13.6,0.1l-5,-13.3c-8.5,-22.3 -9.5,-26.1 -10,-38.9c-1.1,-24.4 3.2,-37.3 16.6,-50.9c14.6,-14.7 32.4,-20 51.9,-15.4c20.1,4.8 37.4,22.7 41.2,42.8l1.1,6.3l7.2,-0.7c4,-0.4 9.5,-1.5 12.2,-2.4c8.1,-2.7 18.7,-9.9 26.1,-17.7c11.7,-12.3 17.4,-25.9 19.7,-46.8l1.3,-11.5l14.4,-0.7c8,-0.3 38.6,-1.2 68,-1.8c29.4,-0.7 61.8,-1.6 72,-2s21.4,-0.7 25,-0.8l6.6,-0.2l2.2,16.7zm-294.8,190.8l0,27.5l48,0l0,44.2c0,49.5 0,49.2 -7,53.3c-3.4,1.9 -4.8,2 -47.5,1.7c-48.9,-0.4 -47.1,-0.1 -50.7,-7.3c-1.7,-3.1 -1.8,-8.8 -1.8,-75.2l0,-71.7l59,0l0,27.5zm40.9,3.5c0,0.3 -3.9,0.4 -8.8,0.2l-8.8,-0.3l-0.2,-8.7l-0.2,-8.7l8.9,8.5c4.9,4.7 9,8.7 9.1,9m41.7,130.8c20.6,12.6 42.3,21.4 65.9,26.7c6.6,1.5 12.2,2.8 12.3,3c0.2,0.2 -1.2,11.1 -3.2,24.2s-4.3,29.9 -5.1,37.3c-2.5,22 -3.6,27.2 -5.4,26.5c-59.9,-23 -123.5,-42 -181.1,-54c-9.6,-2 -17.6,-3.8 -17.7,-3.9c-0.2,-0.1 1.4,-3.4 3.4,-7.2c2.1,-3.8 6.1,-12.7 8.9,-19.7l5.2,-12.8l34.4,0.1c22,0 36.4,-0.4 39.9,-1.1c8.3,-1.7 17.3,-6.6 22.4,-12.1c4.2,-4.3 5.6,-6.8 7.9,-13.3c0.4,-1.2 1,-1.5 1.4,-0.9s5.2,3.8 10.8,7.2"/>
  <path id="svg_2" d="m487.4,434.4c-7.3,3.2 -10.5,13.6 -6.5,21.3c3.2,6.5 8.4,8.5 21.3,8.2l10.3,-0.2l0.7,4.2c1,6.2 4.7,12.1 9.6,15.5c3.5,2.5 5.3,3 10,3.1c10.5,0 17.8,-6.1 20.3,-17.1c1.1,-4.9 1.5,-5.4 4.3,-5.8c13.8,-2.2 17.4,-3 20.7,-4.6c5.1,-2.6 6.9,-5.5 6.9,-11c0,-5.4 -1.8,-8.4 -6.8,-10.9c-7.2,-3.6 -13.3,-4.1 -51,-4.1c-28.6,0.1 -37.4,0.4 -39.8,1.4m-191.6,215.5c-19,0.6 -19.7,0.7 -22.2,3c-4.7,4.4 -4.4,11.2 0.8,15.3c1.9,1.6 4.9,1.8 26.9,1.8c27.4,0 29.4,-0.4 31.7,-6c1.8,-4.3 0.3,-9.7 -3.2,-12.3c-3.3,-2.5 -6.4,-2.6 -34,-1.8m-19.4,36.1c-8,3.2 -8.5,15.4 -0.8,18.6c2.9,1.2 8,1.4 27.4,1.2c23.4,-0.3 23.9,-0.3 26.3,-2.6c3.4,-3.2 4.1,-7.6 2,-11.9c-2.7,-5.8 -5.2,-6.3 -30.5,-6.2c-12.3,0 -23.3,0.4 -24.4,0.9"/>
  <text font-weight="bold" xml:space="preserve" text-anchor="start" font-family="'Inconsolata'" font-size="250" id="svg_3" y="615.10419" x="802.88197" stroke-width="0" stroke="#000" fill="#000000">AMAUTA</text>
 </g>
</svg>