<svg width="2000" height="1024" xmlns="http://www.w3.org/2000/svg" version="1.0"><path d="M433.274 121.8c-1.6 1.1-4.1 3.2-5.5 4.6l-2.5 2.8v119.4l-9.9-.1-10-.2-2.3-6.9c-7.1-20.7-23.8-75.5-28.3-92.5-3.2-12.1-5.6-15.9-11.7-18.5-8.9-3.8-20 1.2-23.2 10.5-.6 1.9-1.1 4.4-1.1 5.7 0 2.5 27.9 91.6 31.5 100.7.7 1.6-1.6 1.7-41.6 1.5-41.2-.3-42.7-.2-51.3 2-23 5.8-39.7 18.1-53.9 39.4-6.3 9.4-10.3 17.9-15.3 32.2-3.9 11.3-6 22.9-6.9 39.6-.7 11.7-1.8 17.1-14.5 72-6.5 28.3-28.7 116.6-40.1 159.7-5.5 21.1-6.9 27.7-6.9 33.5 0 9.7 2.5 14.1 9.9 18l5.3 2.8h64.7l.3 41.2.3 41.3 2.6 5.5c3.2 6.7 8.9 12.5 15 15.4l4.7 2.2-1.9 2.6c-2.5 3.4-7.9 14.4-15.1 30.8-7.3 16.6-8.5 24.2-4.6 30 3.5 5.3 9.4 7.5 31.8 12 46.2 9.3 105.9 25.5 148.1 40.4 16.4 5.7 47.8 17.4 54.4 20.1 5.9 2.5 15.2 1.7 19.7-1.7s7.4-9.6 8.2-17.3c4.6-44.5 10.9-88.9 14.2-100.7.4-1.5 3.7-1.7 35.2-2l34.7-.4 7.5-2.8c16.9-6.4 29.5-18.6 35.1-34.1 2-5.3 2.3-8.6 2.7-27.5l.4-21.5 3.5-6.9c1.9-3.8 4.1-9.8 4.9-13.5 1.5-7.2 1.9-33 .8-53.6l-.7-12.1 14.4-1.2c7.9-.7 16.5-1.7 19.2-2.3 7.3-1.6 13.7-6.6 17.1-13.3 5.3-10.2 5.5-9.1-18.9-82-21.7-64.6-21.7-64.8-22.6-76.5-.6-8-2.1-16.3-4.8-26.6-3.3-12.5-3.7-15.3-2.6-16.5 4.5-5.3 4.5-4.8 4.5-61 0-51-.1-53.2-2-57-2.4-4.7-7.1-8.4-12.5-9.9-2.6-.7-19.7-1.1-48-1.2-24.2-.1-45.2-.4-46.6-.8l-2.5-.6 9.8-32c15.7-51 19.8-65.6 19.8-69.4 0-4.9-3.7-11-8-13.2-6.8-3.7-16.4-1.8-21.4 4.2-2.8 3.3-7 15.7-15.5 45.4-3.3 11.5-7.5 25.5-9.4 31s-5.2 15.8-7.3 22.8l-3.8 12.8-10.9-.3-10.9-.3.2-56.8c.1-53.9 0-56.9-1.8-61.1-2.7-6.1-7.2-9-14.7-9.4-4.6-.2-6.7.1-9 1.6m163.8 196.8-.3 38.5h-56.3l-37.7-.1v-38.4c.1-21.1.3-38.5.5-38.7s21.4-.3 47.2-.1l46.8.2zm-124.8-11.9V333h-104.6c-57.5 0-110-.3-116.7-.7l-12.2-.6.6-2.6c.3-1.4 3-7.6 6-13.7 10.2-20.8 23.5-31.4 42.8-34.2 2.7-.4 45.3-.7 94.5-.7l89.6-.1zm-13.2 58 12.7.6v2.6c0 3.3 3.1 10.1 5.4 12 1.3 1.1 1.4 1.6.4 2.2-.7.5-56.1.9-123 .9h-121.8v-19h106.8c58.7 0 112.4.3 119.5.7m140.5 48c3.5 25.8 3.8 27.1 12.7 54.3 4.6 14 12.5 38.3 17.5 53.9 5.1 15.6 10.5 31.5 12.1 35.3 2.4 5.9 2.6 6.8 1.1 6.8-10.9.1-56.8 3.3-58.3 4-2.4 1.3-4.7 4.8-5.9 9.1-2 6.7 3 16.8 9.6 19.5 2 .8 3.4 2.2 3.5 3.2 0 .9.6 9.2 1.2 18.3l1.2 16.6-15.7.7c-37.4 1.5-49.8 6.2-48.5 18.4.3 3 1.4 5.3 3.3 7.3 4.1 4.3 7.8 5.2 17.5 3.9 4.6-.5 15-1 23.1-1 17.2 0 17.1-.1 11.3 9.5l-3.5 5.8 1.1 13.1c1.8 21.6.2 30.4-7.2 37.8-7.7 7.7-8.2 7.8-60.2 7.8-41.1 0-45.7-.2-54.8-2-26.5-5.4-54.9-18.1-74.9-33.5l-5.9-4.6-.3-42.7c-.3-40.3-.4-42.9-2.3-46.9-1.3-2.7-10.7-13.2-25.2-28.2-24.7-25.3-29.5-29.1-37.5-29.1-3.7 0-3.8-.1-3.8-3.8 0-5.4-2.4-13.8-7.7-27.1-2.5-6.4-4.8-13.6-5-16.1-.5-4.1-.1-5.1 3.6-10 4.8-6.3 5.4-11.4 2.1-16.8-5.2-8.5-17.8-7.8-25.9 1.3-5.4 6.2-7.4 11.8-7.9 22.2-.5 10.5 1.1 17.2 7.4 30.9 2.4 5.3 3.7 9.5 3.8 12.8.1 6.2-.2 6.4-18.5 6.5l-13.6.1-5-13.3c-8.5-22.3-9.5-26.1-10-38.9-1.1-24.4 3.2-37.3 16.6-50.9 14.6-14.7 32.4-20 51.9-15.4 20.1 4.8 37.4 22.7 41.2 42.8l1.1 6.3 7.2-.7c4-.4 9.5-1.5 12.2-2.4 8.1-2.7 18.7-9.9 26.1-17.7 11.7-12.3 17.4-25.9 19.7-46.8l1.3-11.5 14.4-.7c8-.3 38.6-1.2 68-1.8 29.4-.7 61.8-1.6 72-2s21.4-.7 25-.8l6.6-.2zm-294.8 190.8V631h48v44.2c0 49.5 0 49.2-7 53.3-3.4 1.9-4.8 2-47.5 1.7-48.9-.4-47.1-.1-50.7-7.3-1.7-3.1-1.8-8.8-1.8-75.2V576h59zm40.9 3.5c0 .3-3.9.4-8.8.2l-8.8-.3-.2-8.7-.2-8.7 8.9 8.5c4.9 4.7 9 8.7 9.1 9m41.7 130.8c20.6 12.6 42.3 21.4 65.9 26.7 6.6 1.5 12.2 2.8 12.3 3 .2.2-1.2 11.1-3.2 24.2s-4.3 29.9-5.1 37.3c-2.5 22-3.6 27.2-5.4 26.5-59.9-23-123.5-42-181.1-54-9.6-2-17.6-3.8-17.7-3.9-.2-.1 1.4-3.4 3.4-7.2 2.1-3.8 6.1-12.7 8.9-19.7l5.2-12.8 34.4.1c22 0 36.4-.4 39.9-1.1 8.3-1.7 17.3-6.6 22.4-12.1 4.2-4.3 5.6-6.8 7.9-13.3.4-1.2 1-1.5 1.4-.9s5.2 3.8 10.8 7.2"/><path d="M484.174 434.4c-7.3 3.2-10.5 13.6-6.5 21.3 3.2 6.5 8.4 8.5 21.3 8.2l10.3-.2.7 4.2c1 6.2 4.7 12.1 9.6 15.5 3.5 2.5 5.3 3 10 3.1 10.5 0 17.8-6.1 20.3-17.1 1.1-4.9 1.5-5.4 4.3-5.8 13.8-2.2 17.4-3 20.7-4.6 5.1-2.6 6.9-5.5 6.9-11 0-5.4-1.8-8.4-6.8-10.9-7.2-3.6-13.3-4.1-51-4.1-28.6.1-37.4.4-39.8 1.4m-191.6 215.5c-19 .6-19.7.7-22.2 3-4.7 4.4-4.4 11.2.8 15.3 1.9 1.6 4.9 1.8 26.9 1.8 27.4 0 29.4-.4 31.7-6 1.8-4.3.3-9.7-3.2-12.3-3.3-2.5-6.4-2.6-34-1.8m-19.4 36.1c-8 3.2-8.5 15.4-.8 18.6 2.9 1.2 8 1.4 27.4 1.2 23.4-.3 23.9-.3 26.3-2.6 3.4-3.2 4.1-7.6 2-11.9-2.7-5.8-5.2-6.3-30.5-6.2-12.3 0-23.3.4-24.4.9"/><text stroke="#000" stroke-width="0" x="800.656" y="612.104" font-size="250" font-family="'Inconsolata'" xml:space="preserve" font-weight="bold">AMAUTA</text></svg>
